<svg width="1920" height="1080" viewBox="0 0 1920 1080" fill="none" xmlns="http://www.w3.org/2000/svg">
  <defs>
    <radialGradient id="topGlow" cx="0" cy="0" r="1" gradientUnits="userSpaceOnUse" gradientTransform="translate(260 120) rotate(36) scale(760 520)">
      <stop stop-color="white" stop-opacity="0.78"/>
      <stop offset="1" stop-color="white" stop-opacity="0"/>
    </radialGradient>

    <radialGradient id="bottomGlow" cx="0" cy="0" r="1" gradientUnits="userSpaceOnUse" gradientTransform="translate(1630 930) rotate(-145) scale(720 480)">
      <stop stop-color="#BEDCFF" stop-opacity="0.30"/>
      <stop offset="1" stop-color="#BEDCFF" stop-opacity="0"/>
    </radialGradient>

    <linearGradient id="streakA" x1="240" y1="110" x2="1640" y2="820" gradientUnits="userSpaceOnUse">
      <stop stop-color="white" stop-opacity="0"/>
      <stop offset="0.45" stop-color="white" stop-opacity="0.42"/>
      <stop offset="0.6" stop-color="#DCEEFF" stop-opacity="0.22"/>
      <stop offset="1" stop-color="white" stop-opacity="0"/>
    </linearGradient>

    <linearGradient id="streakB" x1="1800" y1="120" x2="340" y2="1000" gradientUnits="userSpaceOnUse">
      <stop stop-color="white" stop-opacity="0"/>
      <stop offset="0.5" stop-color="white" stop-opacity="0.28"/>
      <stop offset="1" stop-color="white" stop-opacity="0"/>
    </linearGradient>

    <filter id="blur80" x="-20%" y="-20%" width="140%" height="140%">
      <feGaussianBlur stdDeviation="80"/>
    </filter>

    <filter id="blur36" x="-20%" y="-20%" width="140%" height="140%">
      <feGaussianBlur stdDeviation="36"/>
    </filter>
  </defs>

  <rect width="1920" height="1080" fill="url(#topGlow)"/>
  <rect width="1920" height="1080" fill="url(#bottomGlow)"/>

  <path d="M-120 900C340 620 480 280 980 260C1370 246 1640 400 2050 80"
        stroke="url(#streakA)" stroke-width="110" stroke-linecap="round"
        filter="url(#blur36)"/>

  <path d="M1820 -120C1520 250 1370 560 980 720C690 840 370 860 -100 1240"
        stroke="url(#streakB)" stroke-width="90" stroke-linecap="round"
        filter="url(#blur80)"/>

  <ellipse cx="1260" cy="270" rx="340" ry="180" fill="white" fill-opacity="0.08" filter="url(#blur80)"/>
</svg>
